<svg xmlns="http://www.w3.org/2000/svg" xmlns:xlink="http://www.w3.org/1999/xlink" x="0px" y="0px" viewBox="0 0 100 100" style="enable-background:new 0 0 100 100;" xml:space="preserve" width="100"  height="100" ><style type="text/css" fill="#FFFFFF">	.bag0{fill:#ED7115;}	.bag1{fill:#FFB133;}	.bag2{fill:#FF931D;}	.bag3{fill:#AA4E0F;}	.bag4{fill:#843D0D;}	.bag5{fill:#FF3627;}	.bag6{fill:#E22924;}	.bag7{fill:#FFD98D;}	.bag8{opacity:0.39;fill:#FFFFFF;}	.bag9{fill:#6A9E2E;}	.bag10{fill:#5E8729;}	.bag11{fill:#A150FF;}	.bag12{fill:#893EFF;}	.bag13{fill:#FFDB45;}	.bag14{fill:#413E49;}	.bag15{fill:#FFFFFF;}	.bag16{fill:#FFDD4D;}	.bag17{fill:#97FFFF;}	.bag18{fill:#80D2FF;}	.bag19{fill:#63636B;}	.bag20{fill:#85858E;}	.bag21{opacity:0.49;fill:#FFFFFF;}	.bag22{fill:#FFF3E9;}	.bag23{fill:#FFE7C0;}	.bag24{fill:#FF7915;}	.bag25{opacity:0.3;fill:#FFFFFF;}</style><g fill="#FFFFFF">	<g fill="#FFFFFF">		<path class="bag0" d="M17.6,50.6c-0.5,0.7-1,1.4-1.7,1.9c-0.8,0.6-5.1,0.7-8.7-0.1c-0.2-0.1-0.7,1.2-0.9,1.2   c-0.2,0.1-0.5,0.2-0.6,0.4C5.6,54.5,6.1,55,6.5,55c2.8,0.5,5.7,0.6,8.7,0.6c0.5,0,1,0,1.5-0.2c0.5-0.2,1-0.5,1.4-0.8   c1-0.7,1.9-1.6,2.7-2.4c2.2-2.2,4.4-4.5,6-7c0.4-0.6,0.7-1.1,0.8-1.7c0.1-0.5-0.1-1-0.3-1.4c-0.5-1-1.6-1.7-3-1.5   c-1.1,0.1-1.9,0.6-2.2,1.6c-0.3,1-0.7,2-1.2,2.9C20.2,46.9,18.9,48.7,17.6,50.6z" fill="#ED7115"></path>		<path class="bag1" d="M33.3,22c2.7-1.5,5.9-2.1,9-2.5c13.8-1.9,27.9-2.1,41.4,1.1c1.8,0.4,3.6,0.9,5,2.2c1.9,1.7,2.4,4.6,2,7.2   c-0.4,2.6-1.6,4.9-2.7,7.3c-4.9,10.6-7.7,22.9-3.9,34c0.7,2,1.5,4,1.4,6.1c-0.3,3.1-2.7,5.5-5.2,7.2c-3.5,2.4-7.5,4.1-11.7,5.1   c-1.1,0.2-2.2,0.4-3.2,0.2c-1.1-0.2-2.1-0.7-3-1.3c-5.4-3.3-9.7-8.2-13.2-13.4c-3.5-5.3-6.4-10.9-9.6-16.4   c-2.7-4.6-5.7-9-7.9-13.9C28.4,38.1,25.1,26.6,33.3,22z" fill="#FFB133"></path>		<path class="bag2" d="M30.8,22.8c2.7-1.5,5.9-2.1,9-2.5c13.8-1.9,27.9-2.1,41.4,1.1c1.8,0.4,3.6,1,5,2.2c1.9,1.8,2.4,4.6,2,7.2   c-0.4,2.6-1.6,4.9-2.7,7.3c-4.9,10.7-7.7,23.1-3.9,34.3c0.7,2,1.5,4,1.4,6.1c-0.3,3.1-2.7,5.5-5.2,7.3C74.2,88.3,70.2,90,66,91   c-1.1,0.2-2.2,0.4-3.2,0.2c-1.1-0.2-2.1-0.7-3-1.3c-5.4-3.3-9.7-8.2-13.2-13.5c-3.5-5.3-6.4-11-9.6-16.5c-2.7-4.6-5.7-9.1-7.9-14   C25.9,39,22.6,27.4,30.8,22.8z" fill="#FF931D"></path>		<path class="bag1" d="M54.3,26.8l-22.9-2.1c-2.2-0.2-4.2,1-5.1,3c-2,4.4-5.1,12.8-5.1,22.2c0,10.4,2,26,3,33.2   c0.3,2.3,2.1,4.1,4.4,4.4l34.8,4.2c3.4,0.4,6.2-2.6,5.6-5.9c-1.2-7.1-2.7-18.5-2-27.8c0.7-8.7,3-17.7,4.8-23.4   c1-3.1-1.2-6.3-4.5-6.6L54.3,26.8z" fill="#FFB133"></path>		<path class="bag3" d="M70.2,24.9c3.2,0.6,6.8,1.6,8.4,4.4c1.3,2.2,1,5,0.5,7.5C78,41.9,76.1,46.8,75,52c-1.2,5.1-1.7,10.6-0.2,15.6   c-1.1-5.6,0-11.3,2-16.6c2-5.3,4.7-10.3,7.1-15.4c1-2.2,2-4.7,1.4-7.1c-0.5-1.7-1.7-3.2-3.2-4.1c-1.5-1-3.3-1.5-5-1.9   c-4.4-1-8.8-1.4-13.3-1.7c-6.3-0.4-12.6-0.7-18.9-0.9c-2.2-0.1-4.5-0.1-6.7,0.3c-1.1,0.2-2,0.6-3,1c-0.7,0.3-2.1,0.7-3,1.1   c2.4,0.1,5.1-0.1,7.5-0.1c2.5,0,5,0,7.5,0.1c4.9,0.2,9.8,0.7,14.7,1.3C64.6,23.9,67.4,24.4,70.2,24.9z" fill="#AA4E0F"></path>		<path class="bag4" d="M74.7,24.3c2.9,0.8,6.1,2.2,7.4,5c0.7,1.7,0.6,3.7,0.2,5.5c-0.4,1.8-1,3.6-1.2,5.5c1.6-2.2,3-4.5,3.6-7.2   c0.5-2.6,0.1-5.6-1.8-7.6c-1.9-2-4.8-2.7-7.5-3.2C66.2,20.9,57,20.3,47.9,20c-1.1,0-2.2-0.1-3.3-0.1c-0.4,0-3.1-0.3-3.3,0   c-0.3,0.5,2.1,0.5,2.4,0.5c1.1,0.1,2.2,0.2,3.3,0.3c4.4,0.3,8.8,0.6,13.2,1.1C65.1,22.2,70,23,74.7,24.3z" fill="#843D0D"></path>		<g fill="#FFFFFF">			<path class="bag0" d="M38.4,20.1c2.7-0.2,5.4-0.2,8.1-0.1c2.9,0.1,5.8,0.2,8.7,0.4c5.7,0.4,11.4,1,17.1,1.7    c2.9,0.4,5.9,0.8,8.4,2.3c2.1,1.2,3.9,3.1,4,5.7c0,1.6-0.6,3.1-1.2,4.6c-0.6,1.4-1.3,2.8-1.9,4.2c-1.3,2.8-2.6,5.6-3.8,8.4    c-2.6,6.2-4.6,12.7-4.1,19.5c0,0.6,1,0.6,1,0c-0.5-6.3,1.3-12.4,3.6-18.1c1.2-2.9,2.6-5.8,3.9-8.7c0.7-1.5,1.4-2.9,2.1-4.4    c0.7-1.4,1.3-2.8,1.5-4.3c0.4-2.6-0.8-4.9-2.7-6.5c-2.1-1.8-4.7-2.6-7.4-3c-2.9-0.5-5.8-0.8-8.7-1.1C64,20.5,61,20.2,58,20    c-3.4-0.3-6.8-0.5-10.1-0.5c-3.1,0-6.3,0.2-9.5,0.5C38.3,19.9,38.3,20.1,38.4,20.1L38.4,20.1z" fill="#ED7115"></path>		</g>		<g fill="#FFFFFF">			<path class="bag5" d="M79.4,34.4c-0.2,0.9-0.3,1.9-0.5,2.8c-0.1,0.7-0.3,1.4-0.5,2.2l12.7-13.4l-3.1-2.3l-8.6,9    C79.6,33.2,79.5,33.8,79.4,34.4z" fill="#FF3627"></path>			<path class="bag6" d="M79.4,34.4c0,0.1,0,0.2-0.1,0.3l9.6-10.1l-0.8-1.1l-8.6,9.1C79.6,33.2,79.5,33.8,79.4,34.4z" fill="#E22924"></path>			<path class="bag7" d="M91.5,25.4c-0.2,0.3-0.4,0.6-0.7,0.7c-0.3,0.1-0.7-0.1-0.7-0.4c-0.2,0.1-0.5,0.1-0.7,0    c-0.2-0.2-0.3-0.5-0.1-0.7c-0.2,0.1-0.5,0.1-0.7,0c-0.2-0.1-0.2-0.5,0-0.6c-0.3,0-0.6-0.1-0.6-0.3c-0.1-0.3,0.1-0.5,0.4-0.7    c1.8-1.4,3.6-2.7,5.5-3.9c0.1-0.1,0.3-0.2,0.5-0.2c0.3,0,0.6,0.2,0.6,0.5c0.1,0.4-0.2,0.8-0.5,1.1c-0.3,0.5-0.7,1-1,1.5    C92.8,23.4,92.1,24.4,91.5,25.4z" fill="#FFD98D"></path>			<path class="bag8" d="M91.1,25.4c-0.1,0.1-0.2,0.2-0.3,0.2c-0.1,0-0.1-0.2-0.1-0.3c-0.1,0.1-0.1,0.2-0.3,0.3    c-0.1,0-0.3-0.1-0.2-0.2c-0.1,0.1-0.3,0.2-0.4,0.1c-0.1-0.1,0-0.3,0.1-0.5c1.4-1.4,2.8-2.9,4.1-4.5c0.2-0.2,0.4-0.5,0.6-0.7    c0.2-0.2,0.3,0,0.2,0.2c0,0.2-0.2,0.3-0.3,0.4c-0.3,0.4-0.6,0.8-0.9,1.2c-0.6,0.8-1.1,1.7-1.7,2.6C91.7,24.5,91.4,25,91.1,25.4z" fill="#FFFFFF"></path>			<path class="bag5" d="M96.5,18c0.1-0.2,0.2-0.3,0.2-0.5c0-0.1,0-0.1-0.1-0.2c-0.1-0.1-0.3,0-0.4,0.1c-0.9,0.6-1.7,1.3-2.4,2    c-0.1,0.1-0.1,0.1-0.2,0.2c-0.1,0.3,0,0.6,0.3,0.8c0.2,0.1,0.6,0.2,0.8,0.1c0.2-0.1,0.5-0.6,0.6-0.8C95.7,19.2,96.1,18.6,96.5,18    z" fill="#FF3627"></path>		</g>		<g fill="#FFFFFF">			<path class="bag9" d="M74.6,26.1c0.4,0.2,0.8,0.4,1.2,0.6c0.1,0.1,0.3,0.1,0.4,0.2l3.7-9.8l-3.6-0.9l-3.5,9.2    C73.4,25.7,74,25.8,74.6,26.1z" fill="#6A9E2E"></path>			<path class="bag10" d="M74,25.8l3.4-9.1L76.3,16l-3.5,9.3C73.2,25.5,73.6,25.7,74,25.8z" fill="#5E8729"></path>			<path class="bag7" d="M80,16.4c0,0.3-0.1,0.6-0.3,0.9s-0.7,0.2-0.8-0.1c-0.1,0.2-0.4,0.3-0.6,0.2c-0.2-0.1-0.4-0.3-0.4-0.6    c-0.1,0.2-0.4,0.3-0.6,0.3c-0.2-0.1-0.4-0.3-0.3-0.5c-0.2,0.1-0.5,0.1-0.7-0.1c-0.2-0.2-0.1-0.5,0.1-0.7c1.1-1.9,2.2-3.7,3.4-5.5    c0.1-0.1,0.2-0.3,0.3-0.4c0.3-0.1,0.6,0,0.8,0.2c0.2,0.4,0.1,0.8,0,1.2c-0.1,0.6-0.2,1.1-0.4,1.7C80.4,14.2,80.2,15.3,80,16.4z" fill="#FFD98D"></path>			<path class="bag8" d="M79.7,16.6c0,0.1-0.1,0.3-0.2,0.3c-0.1,0-0.2-0.1-0.3-0.3c0,0.1,0,0.3-0.1,0.3c-0.1,0.1-0.3,0-0.3-0.1    c-0.1,0.1-0.2,0.3-0.3,0.2c-0.2-0.1-0.1-0.3-0.1-0.4c0.7-1.8,1.4-3.7,1.9-5.5c0.1-0.3,0.2-0.6,0.3-0.9c0.1-0.2,0.2-0.1,0.3,0.1    c0,0.1-0.1,0.3-0.1,0.5c-0.1,0.5-0.2,0.9-0.3,1.4c-0.2,1-0.4,1.9-0.5,2.9C79.9,15.6,79.8,16.1,79.7,16.6z" fill="#FFFFFF"></path>			<path class="bag10" d="M81.7,8c0-0.2,0.1-0.4-0.1-0.5c0,0-0.1-0.1-0.1-0.1c-0.1,0-0.2,0.1-0.3,0.2c-0.6,0.9-1,1.8-1.4,2.7    c0,0.1-0.1,0.2-0.1,0.3c0,0.3,0.2,0.6,0.5,0.6c0.2,0,0.6,0,0.8-0.2c0.2-0.2,0.2-0.7,0.2-0.9C81.4,9.4,81.6,8.7,81.7,8z" fill="#5E8729"></path>		</g>		<g fill="#FFFFFF">			<path class="bag11" d="M61.7,23.2c0.3,0,0.7,0.1,1,0.1L60.8,15l-3,1.1l1.7,7.1C60.2,23.2,61,23.2,61.7,23.2z" fill="#A150FF"></path>			<path class="bag12" d="M60.6,23.2L58.9,16L57.8,16l1.7,7.1C59.8,23.2,60.2,23.2,60.6,23.2z" fill="#893EFF"></path>			<path class="bag7" d="M60.6,14.5c0.1,0.2,0.2,0.5,0.2,0.8c-0.1,0.3-0.4,0.5-0.6,0.3c0,0.2-0.1,0.4-0.3,0.5c-0.2,0.1-0.4,0-0.5-0.2    c0,0.2-0.1,0.4-0.3,0.5c-0.2,0.1-0.4-0.1-0.4-0.3c-0.1,0.2-0.3,0.3-0.5,0.3c-0.2-0.1-0.3-0.3-0.3-0.5c-0.1-1.8-0.2-3.7-0.2-5.5    c0-0.1,0-0.3,0.1-0.4c0.1-0.2,0.4-0.3,0.7-0.2c0.3,0.1,0.4,0.5,0.6,0.8c0.2,0.5,0.4,0.9,0.5,1.4C59.8,12.8,60.2,13.7,60.6,14.5z" fill="#FFD98D"></path>			<path class="bag8" d="M60.5,14.8c0,0.1,0.1,0.2,0,0.3c-0.1,0.1-0.2,0-0.3-0.1c0,0.1,0.1,0.2,0.1,0.3c0,0.1-0.2,0.1-0.2,0.1    c0,0.1,0,0.3-0.1,0.3c-0.1,0-0.2-0.1-0.3-0.3c-0.3-1.6-0.8-3.2-1.2-4.8c-0.1-0.2-0.2-0.5-0.2-0.8c0-0.2,0.1-0.2,0.2-0.1    c0.1,0.1,0.1,0.3,0.1,0.4c0.1,0.4,0.3,0.8,0.4,1.1c0.3,0.8,0.7,1.5,1,2.3C60.1,14,60.3,14.4,60.5,14.8z" fill="#FFFFFF"></path>			<path class="bag11" d="M57.8,7.8c-0.1-0.1-0.1-0.3-0.3-0.3c0,0-0.1,0-0.1,0c-0.1,0-0.1,0.2-0.1,0.3c0,0.9,0.1,1.7,0.3,2.6    c0,0.1,0,0.2,0.1,0.2c0.1,0.2,0.4,0.3,0.7,0.2c0.2-0.1,0.4-0.3,0.5-0.5c0-0.2-0.2-0.6-0.3-0.8C58.3,8.9,58.1,8.4,57.8,7.8z" fill="#A150FF"></path>		</g>		<g fill="#FFFFFF">			<path class="bag0" d="M75,87.2c1.4-0.5,1.7-2.7,2.1-3.9c0.5-2,0.8-3.9,0.5-5.9c-0.6-3.9-2.6-7.5-3.1-11.5c-0.2-1.2-1.9-1-1.7,0.2    c0.8,3.6,2.4,6.9,3.2,10.5c0.2,1,0.4,1.9,0.4,2.9c0,0.9-0.2,1.9-0.3,2.8c-0.1,0.8-0.2,1.7-0.3,2.6c-0.1,0.4-0.1,0.7-0.3,1    c-0.1,0.4-0.4,0.8-0.6,1.2C74.9,87.1,74.9,87.2,75,87.2L75,87.2z" fill="#ED7115"></path>		</g>		<path class="bag2" d="M27.4,85.2c-0.6-1-0.9-2.1-1.1-3.3c-1.6-8.1-1.7-16.4-1.8-24.6c-0.1-6.3-0.2-12.7,1.3-18.9   c1-4,2.8-8.1,6.4-10.1c2.2-1.2,4.8-1.4,7.3-1.7c2-0.2,4-0.3,6-0.5c-3.8-0.7-7.7-1.2-11.6-1.5c-1.5-0.1-3-0.2-4.4,0.3   c-2.5,0.9-4,3.6-4.9,6.1c-1.6,4.3-2.3,8.8-3,13.3c-0.4,2.6-0.8,5.2-0.8,7.8c0,2.7,0.5,5.4,0.8,8.1c0.9,7.5,0.6,15.3,2.7,22.5   c0.4,1.4,1,2.9,2.3,3.6c1.2,0.7,2.8,0.4,4,1.2C29.4,86.9,28.2,86.5,27.4,85.2z" fill="#FF931D"></path>		<g fill="#FFFFFF">			<path class="bag13" d="M64.3,92.6c-0.2,0-0.5,0-0.7,0l-34.8-4.2c-2.7-0.3-4.9-2.4-5.3-5.2c-1.1-8.1-3-23.1-3-33.4    c0-9.7,3.2-18.3,5.1-22.6c1.1-2.3,3.5-3.8,6.1-3.5l22.9,2.1l13.2,1.1c1.8,0.2,3.5,1.1,4.5,2.6c1,1.5,1.3,3.4,0.8,5.2    c-1.8,5.8-4.1,14.6-4.8,23.1c-0.7,9,0.7,20,2,27.6c0.3,1.9-0.3,3.8-1.6,5.2C67.5,91.9,66,92.6,64.3,92.6z M31.1,25.6    c-1.6,0-3.1,1-3.8,2.5c-1.9,4.1-5,12.5-5,21.8c0,10.5,2.1,26.6,3,33.1c0.3,1.9,1.8,3.3,3.6,3.6l34.8,4.2c1.3,0.2,2.6-0.3,3.5-1.3    c0.9-1,1.3-2.3,1.1-3.6c-1.3-7.7-2.7-18.8-2-28.1c0.7-8.7,3-17.6,4.9-23.6c0.4-1.2,0.2-2.5-0.5-3.6c-0.7-1.1-1.8-1.7-3.1-1.8    l-13.2-1.1l-22.9-2.1C31.4,25.6,31.3,25.6,31.1,25.6z" fill="#FFDB45"></path>		</g>		<path class="bag3" d="M27.7,32.1c-0.1,0.1-0.2,0.3-0.2,0.4c0,0.2,0.3,0.4,0.5,0.4c0.2,0,0.5-0.1,0.7-0.2c1.6-0.7,3.2-1.5,4.8-2.3   c0.2-0.1,0.5-0.3,0.6-0.5c0.2-0.2,0.2-0.5,0-0.7c-0.1-0.1-0.3-0.2-0.5-0.3C31.6,28.5,28.9,30.5,27.7,32.1z" fill="#AA4E0F"></path>		<path class="bag3" d="M61,34.8c0.1,0.2,0.1,0.3,0.1,0.5c-0.1,0.2-0.4,0.4-0.6,0.3c-0.2,0-0.5-0.2-0.7-0.3c-1.4-1.1-2.8-2.1-4.2-3.3   c-0.2-0.2-0.4-0.4-0.5-0.6c-0.1-0.2-0.1-0.6,0.1-0.7c0.1-0.1,0.3-0.1,0.5-0.2C58.1,30.4,60.2,32.9,61,34.8z" fill="#AA4E0F"></path>		<path class="bag14" d="M38.4,61.4C39.8,63,42,64,44,63.6c1.4-0.3,2.6-1.1,3.6-2.1c1.7-1.6,3-3.5,3.8-5.7c-0.8,4.4-1.7,8.8-3.4,12.9   c-0.7,1.7-1.4,3.4-3,4.3c-1.2,0.6-4,1-5.4-0.8c-4-5.3-4.4-12.5-5.2-18C34.7,55.4,37.4,60.4,38.4,61.4z" fill="#413E49"></path>		<path class="bag15" d="M47.6,61.5c-1,1-2.2,1.8-3.6,2.1c-2.1,0.4-4.2-0.7-5.6-2.2c-0.4-0.4-0.9-1.2-1.5-2.2c0,0.1,0,0.2,0,0.3   c0.2,1.3,0.4,2.6,0.6,3.9c0.2,1,0.3,2,1,2.7c0.9,1.1,2.5,1.3,3.9,1.3c1.2,0,2.3-0.1,3.5-0.2c0.7-0.1,1.5-0.3,1.8-1   c0.1-0.2,0.1-0.4,0.1-0.6c0.2-1.6,0.4-3.1,0.5-4.7C48.1,61,47.8,61.3,47.6,61.5z" fill="#FFFFFF"></path>		<g fill="#FFFFFF">			<path class="bag14" d="M33.3,54.2c0.1-0.1,0.2-0.3,0.3-0.4c0.1-0.1,0.2-0.2,0.3-0.3c0.3-0.2,0.6-0.2,0.9-0.1    c0-0.1,0.1-0.2,0.1-0.3c0,0,0,0,0,0c-0.1-0.1-0.2-0.1-0.2,0c0,0.1,0,0.2,0.1,0.3c0.2,0,0.3-0.2,0.1-0.3c-0.4-0.2-0.8-0.1-1.1,0.1    c-0.2,0.1-0.3,0.2-0.4,0.4C33.3,53.8,33.2,53.9,33.3,54.2C33.2,54.2,33.3,54.2,33.3,54.2L33.3,54.2z" fill="#413E49"></path>		</g>		<g fill="#FFFFFF">			<path class="bag14" d="M51.1,55.1c0.1,0,0.2,0,0.3,0c0.1,0,0.2,0,0.3,0.1c0.2,0.1,0.4,0.2,0.5,0.4c0.1,0.2,0.2,0.3,0.2,0.5    c0,0.1,0,0.3,0,0.4c0,0.1-0.1,0.3,0,0.4c0,0.1,0.1,0.1,0.2,0c0.1-0.1,0.1-0.3,0.1-0.4c0-0.2,0-0.3,0-0.5c0-0.3-0.1-0.5-0.3-0.7    c-0.2-0.2-0.4-0.4-0.6-0.4c-0.1,0-0.3-0.1-0.4-0.1c-0.1,0-0.3,0-0.3,0.1C50.9,55,51,55.1,51.1,55.1L51.1,55.1z" fill="#413E49"></path>		</g>		<path class="bag0" d="M5.6,51.1C5.3,50.7,5,50,5,49.5C5,49,5.1,48.5,5,48c0-0.2-0.1-0.4-0.3-0.4c-0.2,0-0.4,0.2-0.5,0.5   c-0.2,0.7-0.4,1.5-0.4,2.2c-0.6-0.2-1.3,0-1.8,0.4c-0.2,0.2-0.3,0.4-0.3,0.6c0,0.2,0.1,0.5,0.3,0.6c-0.4,0-0.7,0.3-0.7,0.7   c0,0.3,0.2,0.7,0.5,0.8c-0.3,0.2-0.5,0.6-0.3,0.9c0.1,0.3,0.4,0.6,0.8,0.7s0.7,0.1,1.1,0.1c1.4,0,2.8-0.4,4.1-0.2   c0.4,0,0.8,0.1,1.1-0.1c0.3-0.2,0.3-0.6,0.4-0.9c0-0.3,0-0.6-0.2-0.9c-0.1-0.2-0.3-0.2-0.5-0.3C7.2,52.4,6.4,52,5.6,51.1z" fill="#ED7115"></path>		<path class="bag0" d="M78.6,60c3.7,5.3,9.1,9.4,15.2,11.4c0-0.5,0-0.9,0-1.4c-3-1.4-6-3.1-8.4-5.4c-2.4-2.3-4.4-5.2-5-8.5   c-0.2-1.1-0.3-2.2-0.5-3.3c0-0.2-0.1-0.4-0.2-0.5c-0.4-0.4-1.1,0.1-1.3,0.7C76.7,55.6,76.8,57.5,78.6,60z" fill="#ED7115"></path>		<path class="bag0" d="M92.7,69.2c0.5,0,0.9-0.1,1.4-0.2c0.5-0.1,1-0.3,1.5-0.5c0.2-0.1,0.5-0.1,0.6,0.1c0.1,0.1,0,0.3-0.2,0.4   c-0.1,0.2-0.3,0.3-0.4,0.5c0.7,0,1.3-0.1,2-0.1c0.2,0,0.3,0,0.5,0c0.2,0,0.3,0.1,0.3,0.3c0,0.1,0,0.3-0.2,0.4   c0.2-0.1,0.5,0,0.6,0.2c0.1,0.2,0,0.5-0.1,0.6c-0.2,0.2-0.4,0.2-0.6,0.2c0.2,0,0.4,0.1,0.4,0.2c0,0,0,0.1,0,0.1   c-0.1,0.2-0.3,0.3-0.4,0.3c-1.2,0.4-2.5,0.3-3.8,0c-1.2-0.3-2.4-0.9-3.4-1.6c-0.4-0.3-0.7-0.5-1-0.9c-0.1-0.1-0.2-0.3-0.1-0.4   c0.1-0.1,0.2-0.1,0.3-0.1C91,68.6,91.8,69.2,92.7,69.2z" fill="#ED7115"></path>		<polygon class="bag16" points="29,71.1 28.4,69.3 26.6,68.7 28.1,67.6 28.1,65.7 29.6,66.8 31.4,66.2 30.8,68 32,69.5 30.1,69.5      " fill="#FFDD4D"></polygon>		<polygon class="bag16" points="42.9,81.1 41.4,80.1 39.7,80.8 40.1,79.1 38.9,77.7 40.8,77.6 41.7,76 42.4,77.7 44.2,78.1    42.8,79.3   " fill="#FFDD4D"></polygon>		<polygon class="bag16" points="31.9,85 31.4,83.9 30.1,83.7 31,82.9 30.8,81.7 31.9,82.2 33,81.7 32.8,82.9 33.7,83.7 32.4,83.9      " fill="#FFDD4D"></polygon>		<polygon class="bag16" points="59.7,82.8 61.1,80.9 60.3,78.7 62.5,79.4 64.3,78 64.4,80.3 66.3,81.6 64.1,82.3 63.5,84.6    62.1,82.7   " fill="#FFDD4D"></polygon>		<polygon class="bag16" points="59.3,70.6 57.8,69.4 55.9,70 56.5,68.2 55.3,66.6 57.3,66.6 58.4,65 59,66.9 60.9,67.4 59.3,68.6      " fill="#FFDD4D"></polygon>		<polygon class="bag16" points="60.2,53 60.8,51.7 60.1,50.6 61.4,50.7 62.2,49.7 62.5,51 63.8,51.5 62.6,52.2 62.5,53.5 61.5,52.6      " fill="#FFDD4D"></polygon>		<polygon class="bag16" points="29.9,55.9 28,55.2 26.3,56.3 26.4,54.2 24.9,53 26.8,52.5 27.5,50.6 28.6,52.3 30.6,52.4 29.3,54      " fill="#FFDD4D"></polygon>		<polygon class="bag16" points="43.7,36.3 43.4,34.6 41.8,34 43.3,33.1 43.5,31.5 44.7,32.6 46.4,32.2 45.6,33.8 46.5,35.2 44.8,35      " fill="#FFDD4D"></polygon>		<polygon class="bag16" points="65.3,35.5 64.2,34.1 62.4,34.3 63.3,32.8 62.7,31.2 64.4,31.6 65.7,30.5 65.8,32.2 67.3,33.1    65.7,33.8   " fill="#FFDD4D"></polygon>		<path class="bag17" d="M28.9,15.7c0.6-1.7,1.8-3.1,3.2-4.1c1.4-1.1,3-1.8,4.7-2.4c3.9-1.3,8.1-1.8,12.1-1.3   c1.6,4.6,1.9,9.6,2.2,14.5c-1.7-0.5-3.4-0.5-5.1-0.6c-2.9-0.1-5.9-0.2-8.8,0c-1,0-1.9,0.2-2.6-0.5c-0.8-0.8-1.4-1.9-2.2-2.7   C31.3,17.4,30.2,16.5,28.9,15.7z" fill="#97FFFF"></path>		<path class="bag18" d="M44.2,14.1c0-0.1,0.1-0.1,0.1-0.2c0.1,0,0.2,0,0.2,0c7.5,0.7,14.5,4.2,21,8.1c-0.6,0.7-1.1,1.5-1.5,2.3   c-2.5-0.5-5-0.9-7.5-1.3c-2.5-0.4-5.1-0.7-7.7-0.9c-2.2-0.2-4.4-0.3-6.6-0.2c-1.2,0-1-0.6-0.7-1.5c0.3-1,0.7-2,1.1-3   C43.3,16.2,43.7,15.1,44.2,14.1z" fill="#80D2FF"></path>		<path class="bag0" d="M78.7,28.3c-1.6-2.5-4.8-3.3-7.7-3.8c-12.8-2.3-25.3-3.7-38.2-2.8l-2.4,1.2c15.4-1.3,27.3,1.1,40,3   c2.3,0.3,5.4,1.5,6.7,3.7c2.1,3.7-0.6,10.8-1.5,14.2c-0.8,3.1-2,6.1-2.7,9.3c-0.9,4.6-0.6,9.4,0.9,13.8c0.6-1.9,0.2-3.9,0.1-5.8   c-0.6-9.4,5.4-18,5.8-27.4C79.9,31.7,79.7,29.8,78.7,28.3z" fill="#ED7115"></path>		<g fill="#FFFFFF">			<g fill="#FFFFFF">				<path class="bag19" d="M75.2,64.4L73,64.5c-0.6,0-1.1,0.6-1,1.2l0.3,4.5c0,0.6,0.6,1.1,1.2,1.1l2.2-0.2c0.6,0,1.1-0.6,1-1.2     l-0.3-4.5C76.3,64.8,75.8,64.3,75.2,64.4z M76,69.8c0,0.4-0.2,0.7-0.6,0.7l-1.8,0.1c-0.4,0-0.7-0.3-0.7-0.6l0-0.4     c0-0.4,0.2-0.7,0.6-0.7l1.8-0.1c0.4,0,0.7,0.3,0.7,0.6L76,69.8z" fill="#63636B"></path>				<path class="bag16" d="M72.9,77.8c-0.1,0.2-0.2,0.3-0.2,0.5c0,0.2,0.1,0.4,0.3,0.5c0.4,0.3,0.9,0.4,1.4,0.4     c0.3,0,0.7-0.1,0.9-0.3c0.2-0.2,0.2-0.4,0.3-0.6c0.3-1.1,0.2-2.2,0.1-3.3c-0.1-0.6-0.1-1.1-0.2-1.7c0-0.3-0.1-0.6-0.2-0.9     c-0.1-0.3-0.4-0.5-0.7-0.6c-0.3-0.1-0.7,0.1-0.7,0.5c0,0.1,0,0.1-0.1,0.1c0,0.9,0.1,1.8,0,2.8C73.6,76.1,73.4,77,72.9,77.8z" fill="#FFDD4D"></path>				<path class="bag20" d="M75.1,73l-0.7,0.1c-0.5,0-0.8-0.3-0.9-0.8l-0.1-2c0-0.5,0.3-0.8,0.8-0.9l0.7-0.1c0.5,0,0.8,0.3,0.9,0.8     l0.1,2C75.9,72.6,75.5,73,75.1,73z" fill="#85858E"></path>			</g>			<path class="bag21" d="M73.7,69.9c-0.2,0.2-0.2,0.6-0.2,0.9c0,0.4,0.1,0.7,0.1,1.1c0,0.3,0.1,0.5,0.3,0.7c0,0,0.1,0.1,0.1,0    c0,0,0,0,0,0c0-0.3,0-0.5,0-0.8c0-0.3-0.1-0.5,0-0.8c0.1-0.3,0.2-0.5,0.5-0.6c0.1,0,0.3,0,0.4-0.1c0.4-0.2,0.1-0.6-0.2-0.7    C74.4,69.6,74,69.7,73.7,69.9z" fill="#FFFFFF"></path>		</g>		<g fill="#FFFFFF">			<path class="bag22" d="M30.3,38.4c-0.9,1.6-1,3.5-0.9,5.4c0.1,2,0.4,4,1.5,5.7c1,1.6,3,2.7,4.8,2.2c0.9-0.3,1.7-0.9,2.3-1.7    c0.6-0.8,1-1.7,1.3-2.7c0.6-1.9,0.9-4,0.8-6c0-0.9-0.1-1.7-0.4-2.5c-0.7-1.9-2.7-2.9-4.5-2.8c-0.9,0.1-1.8,0-2.6,0.3    C31.6,36.7,30.8,37.5,30.3,38.4z" fill="#FFF3E9"></path>			<path class="bag23" d="M40.2,41.2c0-0.9-0.1-1.7-0.4-2.5c-0.3-0.7-0.7-1.3-1.2-1.7c0.1,0.2,0.2,0.3,0.2,0.5    c0.3,0.8,0.4,1.6,0.4,2.5c0.1,2-0.2,4.1-0.8,6c-0.3,1-0.7,1.9-1.3,2.7c-0.6,0.8-1.4,1.5-2.3,1.7c-1.4,0.4-2.8-0.2-3.9-1.1    c0,0,0,0.1,0.1,0.1c1,1.6,3,2.7,4.8,2.2c0.9-0.3,1.7-0.9,2.3-1.7s1-1.7,1.3-2.7C40,45.3,40.3,43.3,40.2,41.2z" fill="#FFE7C0"></path>			<path class="bag23" d="M29.4,42.1c2.9-2.1,5.9-1.8,8.3-0.3c0.9,0.5,1.5,1.6,2,2.3c0.1-0.6,0.3-2.8,0-3.4c-0.3-0.5-0.8-0.8-1.3-1.1    c-1-0.4-2-0.6-3.1-0.6c-1.1,0-2.1,0.1-3.1,0.3c-0.5,0.1-1,0.3-1.5,0.5c-0.4,0.2-1,0.4-1.3,0.8c-0.1,0.2-0.1,0.3,0,0.5    C29.4,41.5,29.4,41.8,29.4,42.1z" fill="#FFE7C0"></path>			<path class="bag14" d="M31.6,41.8c-0.3,0.7-0.4,1.5-0.4,2.3c0,1.1,0.2,2.2,0.8,3c0.6,0.8,1.7,1.3,2.6,0.9c0.3-0.1,0.5-0.4,0.8-0.6    c1.1-1.2,1.6-2.9,1.2-4.5c-0.2-0.8-0.5-1.5-1.1-2C34.3,39.9,32.3,40.3,31.6,41.8z" fill="#413E49"></path>			<path class="bag15" d="M32.1,43.3c0,0.2,0,0.5,0.2,0.6c0.1,0.1,0.2,0.1,0.3,0.1c0.4,0,0.8-0.3,1-0.6c0.3-0.4,0.6-0.9,0.7-1.4    c0.2-0.8-0.6-1.4-1.3-1C32.4,41.4,32.1,42.6,32.1,43.3z" fill="#FFFFFF"></path>			<path class="bag2" d="M29.8,38.8c0.6-1.1,1.5-2.2,2.6-2.8c1-0.5,2.1-0.8,3.2-0.8c1,0,2.1,0.1,3,0.7c0.9,0.5,1.4,1.4,1.7,2.4    c0.3,1,0.3,2,0.3,3c0,0.7,0,0.9-0.1,1.6c-1-0.8-1.6-2.1-4.4-3.1c-2.7-0.9-6.4-0.6-7,3.1c0.1-0.3,0-1.4,0.1-1.8    C29.3,40.3,29.4,39.6,29.8,38.8z" fill="#FF931D"></path>			<g fill="#FFFFFF">				<path class="bag24" d="M40.3,38.3c-0.3-1-0.9-1.9-1.7-2.4c-0.4-0.3-0.9-0.4-1.3-0.5c0.8,0.6,1.3,1.4,1.5,2.3c0.3,1,0.3,2,0.3,3     c0,0.7,0,0.2,0,0.9c0.5,0.3,1,1.1,1.5,1.4c0-0.7,0.1-0.9,0.1-1.6C40.6,40.3,40.6,39.3,40.3,38.3z" fill="#FF7915"></path>			</g>			<path class="bag25" d="M31.4,37.4c-0.8,0.7-1.3,1.5-1.5,2.4c0,0.1,0,0.3,0.1,0.3c0.1,0,0.1-0.1,0.2-0.1c1.1-1.4,2.3-2.9,4-3.8    c0.1-0.1,0.3-0.2,0.3-0.3c-0.6-0.2-1.2,0.2-1.6,0.5C32.3,36.7,31.8,37,31.4,37.4z" fill="#FFFFFF"></path>		</g>		<g fill="#FFFFFF">			<path class="bag22" d="M50.9,39.8c-0.9,1.6-1.1,3.6-1.1,5.5c0,2,0.3,4.2,1.3,5.9c1,1.7,3,2.9,4.8,2.5c1-0.2,1.8-0.9,2.4-1.7    c0.6-0.8,1.1-1.8,1.4-2.7c0.7-2,1.1-4,1.1-6.1c0-0.9-0.1-1.8-0.4-2.6c-0.7-2-2.6-3.1-4.6-3c-0.9,0.1-1.8-0.1-2.7,0.2    C52.3,38.1,51.4,38.9,50.9,39.8z" fill="#FFF3E9"></path>			<path class="bag23" d="M60.9,43.1c0-0.9-0.1-1.8-0.4-2.6c-0.3-0.7-0.7-1.3-1.2-1.8c0.1,0.2,0.2,0.3,0.2,0.5    c0.3,0.8,0.4,1.7,0.4,2.6c0,2.1-0.4,4.2-1.1,6.1c-0.4,1-0.8,1.9-1.4,2.7c-0.6,0.8-1.5,1.4-2.4,1.7c-1.4,0.3-2.9-0.3-3.9-1.3    c0,0,0,0.1,0.1,0.1c1,1.7,3,2.9,4.8,2.5c1-0.2,1.8-0.9,2.4-1.7c0.6-0.8,1.1-1.8,1.4-2.7C60.5,47.3,60.9,45.2,60.9,43.1z" fill="#FFE7C0"></path>			<path class="bag23" d="M49.8,43.6c3.1-2.1,6.1-1.6,8.5,0c0.9,0.6,1.5,1.7,1.9,2.4c0.1-0.7,0.4-2.9,0.1-3.5    c-0.2-0.5-0.8-0.9-1.3-1.1c-1-0.5-2.1-0.6-3.2-0.7c-1.1-0.1-2.2,0-3.2,0.2c-0.5,0.1-1.1,0.3-1.6,0.5c-0.4,0.2-1.1,0.4-1.3,0.7    c-0.1,0.2-0.1,0.3-0.1,0.5C49.8,43,49.8,43.3,49.8,43.6z" fill="#FFE7C0"></path>			<path class="bag14" d="M52,43.3c-0.4,0.7-0.5,1.6-0.5,2.4c0,1.1,0.1,2.2,0.7,3.1c0.6,0.9,1.7,1.4,2.7,1c0.3-0.1,0.6-0.3,0.8-0.6    c1.2-1.2,1.7-2.9,1.4-4.6c-0.1-0.8-0.5-1.6-1-2.1C54.8,41.5,52.8,41.8,52,43.3z" fill="#413E49"></path>			<path class="bag15" d="M52.5,44.9c0,0.2,0,0.5,0.1,0.6c0.1,0.1,0.2,0.1,0.3,0.1c0.4,0,0.8-0.3,1.1-0.6c0.4-0.4,0.7-0.9,0.8-1.4    c0.2-0.9-0.5-1.5-1.3-1C52.9,42.9,52.6,44.2,52.5,44.9z" fill="#FFFFFF"></path>			<path class="bag2" d="M50.3,40.2c0.6-1.2,1.6-2.2,2.8-2.8c1-0.5,2.2-0.7,3.3-0.7c1.1,0,2.2,0.2,3,0.8c0.9,0.6,1.4,1.5,1.7,2.5    c0.3,1,0.3,2,0.2,3.1c0,0.8-0.1,0.9-0.1,1.7c-1-0.8-1.6-2.2-4.4-3.3c-2.7-1-6.6-0.9-7.3,2.9c0.1-0.3,0-1.5,0.1-1.8    C49.8,41.7,49.9,41,50.3,40.2z" fill="#FF931D"></path>			<g fill="#FFFFFF">				<path class="bag24" d="M61.1,40.1c-0.3-1-0.8-1.9-1.7-2.5c-0.4-0.3-0.9-0.5-1.4-0.6c0.8,0.6,1.3,1.5,1.5,2.4c0.3,1,0.3,2,0.2,3.1     c0,0.7,0,0.2-0.1,0.9c0.5,0.4,1,1.1,1.5,1.5c0.1-0.8,0.1-0.9,0.1-1.7C61.4,42.1,61.3,41.1,61.1,40.1z" fill="#FF7915"></path>			</g>			<path class="bag25" d="M52,38.8c-0.8,0.7-1.4,1.5-1.6,2.4c0,0.1,0,0.3,0.1,0.3c0.1,0,0.1-0.1,0.2-0.1c1.2-1.4,2.4-2.9,4.3-3.7    c0.2-0.1,0.3-0.2,0.4-0.3c-0.6-0.2-1.2,0.2-1.7,0.4C53,38.1,52.5,38.4,52,38.8z" fill="#FFFFFF"></path>		</g>	</g>	<polygon class="bag16" points="51.4,87.6 50.7,86.3 49.3,86.1 50.4,85.1 50.1,83.6 51.4,84.3 52.7,83.6 52.4,85.1 53.5,86.1   52,86.3  " fill="#FFDD4D"></polygon></g></svg>