<svg xmlns="http://www.w3.org/2000/svg" xmlns:xlink="http://www.w3.org/1999/xlink" x="0px" y="0px" viewBox="0 0 100 100" style="enable-background:new 0 0 100 100;" xml:space="preserve" width="100"  height="100" >	<style type="text/css" fill="#FFFFFF">		.colors0{fill:#5C9B34;}	.colors1{fill:#EF390F;}	.colors2{fill:#FF5A27;}	.colors3{fill:#FF7336;}	.colors4{fill:#FFCE80;}	.colors5{fill:#FFBE71;}	.colors6{opacity:0.31;fill:#FFFFFF;}	.colors7{opacity:0.22;fill:#FFFFFF;}	.colors8{fill:#6DBF3D;}	.colors9{fill:#7DD146;}	.colors10{fill:#413E49;}	.colors11{fill:#FF624D;}	.colors12{fill:#FFF3E9;}	.colors13{fill:#FFE7C0;}	.colors14{fill:#FFFFFF;}	.colors15{fill:#FF8243;}	.colors16{opacity:0.3;fill:#FFFFFF;}	</style>	<g fill="#FFFFFF">		<path class="colors0" d="M46.6,61.6c-0.1,0.4-0.2,0.8-0.4,1.1s-0.5,0.7-0.9,0.8c-0.1,0-0.2,0-0.3,0c-0.1-0.1-0.1-0.2-0.1-0.3  c-0.1-0.1-0.3-0.1-0.5,0c-0.3,0.1-0.7,0.2-1,0.2c-0.2,0-0.4,0-0.6,0c-0.2-0.1-0.3-0.2-0.3-0.4c-0.2,0-0.3-0.1-0.4-0.2  c-0.1-0.1-0.1-0.3,0-0.4c-0.2-0.1-0.3-0.4-0.3-0.7c0.1-0.3,0.2-0.5,0.5-0.6c0.2-0.1,0.5-0.2,0.7-0.2c1-0.2,2-0.1,2.9-0.4  c0.3-0.1,0.6-0.2,0.9-0.3c0.4-0.2,0.6,0.3,0.4,0.6C47,61,46.8,61.2,46.6,61.6z" fill="#5C9B34">		</path>		<path class="colors1" d="M4.7,69.5c-0.2,0.4-0.4,1,0,1.2c0.3,0.2,0.7-0.1,0.9-0.4c2.3-2.9,3.7-6.3,5.2-9.6c1.3-2.7,2.7-5.5,2.7-8.5  c0-1.3-0.8-3.2-2.5-2.6c-1.5,0.5-1.1,2.7-1.2,3.9c-0.3,3.6-1.1,7.2-2.4,10.6C6.6,66,5.7,67.8,4.7,69.5z" fill="#EF390F">		</path>		<path class="colors0" d="M80.9,49.5c4-1.1,7.1-4.2,9.8-7.3c0.7-0.8,1.3-1.6,1.7-2.5c0.1-0.2,0.1-0.4,0.3-0.5c0.1-0.1,0.4-0.2,0.5,0  c0.1,0.1,0.1,0.3,0.1,0.5c-0.6,2.7-2.5,4.9-4.4,6.8c-2,2-4.2,3.8-6.5,5.4c-1.1,0.8-2.2,1.5-3.4,1.9c-0.6,0.2-1.3,0.3-1.9-0.1  c-0.8-0.5-0.8-1.7-0.5-2.6C77.4,49,79.3,49.9,80.9,49.5z" fill="#5C9B34">		</path>		<path class="colors0" d="M45.9,60.4c-0.2,0.1-0.4,0.3-0.4,0.5c0,0.3,0.3,0.4,0.5,0.4c0.3,0,0.5-0.2,0.7-0.3c2.4-1.7,4.5-4,6.5-6.3  c1.2-1.3,2.4-2.8,2.8-4.5c0.1-0.6,0.2-1.3-0.2-1.9c-0.2-0.4-0.7-0.7-1.2-0.6c-0.6,0.1-0.6,0.4-0.8,0.9c-0.5,1.1-0.9,2.2-1.5,3.2  c-1,2.1-2.2,4.1-3.7,5.9C47.8,58.7,46.9,59.6,45.9,60.4z" fill="#5C9B34">		</path>		<path class="colors1" d="M34.2,45.4c2.2,5.7,5.4,10.9,9.4,15.5c0.2,0.3,0.4,0.7,0.2,0.9c-0.2,0.2-0.5,0-0.8-0.1  c-2.6-1.8-5.2-3.7-7.1-6.2c-1.9-2.5-3.1-5.7-2.6-8.9c0.1-0.4,0.2-0.8,0.5-0.9c0.3-0.2,0.8,0.2,0.6,0.5L34.2,45.4z" fill="#EF390F">		</path>		<path class="colors1" d="M4,67.1c-0.2,0.1-0.5,0.1-0.7,0.3c-0.2,0.2-0.3,0.5-0.2,0.7c0.1,0.2,0.5,0.3,0.7,0.2c0.3-0.1,0.5-0.2,0.8-0.2  c-0.7,0.7-1.3,1.5-1.8,2.3c-0.1,0.2-0.2,0.5-0.1,0.7c0.1,0.2,0.4,0.2,0.5,0.1c0.2-0.1,0.3-0.2,0.4-0.4c-0.1,0.3-0.3,0.5-0.5,0.7  c-0.1,0.3-0.1,0.7,0.2,0.7c0.2,0,0.3-0.1,0.4-0.2c0.2-0.2,0.4-0.4,0.6-0.7c-0.1,0.1-0.2,0.2-0.2,0.3c0,0.1,0,0.3,0.1,0.3  c0.1,0,0.2,0,0.2,0c0.7-0.1,1.1-0.8,1.5-1.3c1.2-1.9,2-3.9,2.5-6.1c0.2-0.7-0.4-0.3-0.7-0.1c-0.4,0.4-0.7,0.8-1.2,1.1  C6,66.3,5,66.8,4,67.1z" fill="#EF390F">		</path>		<path class="colors0" d="M92,36.6c-0.1-0.3-0.1-0.6-0.1-0.9c0.1-0.3,0.3-0.6,0.6-0.5c0.3,0,0.5,0.4,0.6,0.7c0.1,0.3,0.1,0.6,0.2,0.9  c0.4-1,0.9-2,1.5-3c0.2-0.2,0.4-0.5,0.7-0.4c0.2,0,0.4,0.3,0.4,0.5c0,0.2-0.1,0.4-0.2,0.6c0.2-0.2,0.3-0.6,0.5-0.9  c0.2-0.3,0.7-0.4,0.8-0.1c0.1,0.2,0,0.4,0,0.6c-0.1,0.3-0.2,0.6-0.4,1c0.1-0.1,0.1-0.3,0.2-0.3c0.1-0.1,0.3-0.1,0.4,0  c0.1,0.1,0.1,0.1,0.1,0.2c0.2,0.7-0.2,1.5-0.6,2.2c-1.3,2.1-3,4-4.9,5.5c-0.6,0.5-0.5-0.2-0.4-0.7c0.2-0.6,0.4-1.1,0.6-1.7  C92.2,39,92.2,37.7,92,36.6z" fill="#5C9B34">		</path>		<g fill="#FFFFFF">			<path class="colors2" d="M25.2,16.1c-1-2.7-2.1-5.4-3.2-8.1c-0.6-1.5-1.3-2.9-2-4.3c-0.3-0.5-0.6-1.1-1.1-1.4C18.6,2.1,18.3,2,18,2   c-0.3,0-0.6,0.2-0.9,0.4c-0.4,0.4-0.6,1-0.7,1.6c-0.4,1.5-0.7,3.1-1.1,4.6c-0.6,2.8-1.1,5.7-1.5,8.6c-0.3,2.4-1.2,5.2,0.1,7.3   c0.6,1,1.3,1.7,2.2,2.5c0.6,0.5,1.2,0.9,1.8,1.1s1.5,0.2,2.1-0.3c0.3-0.2,0.5-0.5,0.6-0.8c0.2,0.3,0.5,0.5,0.8,0.6   c0.7,0.3,1.5,0.2,2.1-0.2c0.6-0.4,1.1-0.9,1.6-1.5c0.7-0.9,1.3-1.8,1.6-2.9C27.4,20.9,26,18.3,25.2,16.1z" fill="#FF5A27">			</path>			<path class="colors1" d="M26.6,23.3c0.8-2.4-0.7-5-1.5-7.2c-1-2.7-2.1-5.4-3.2-8.1c-0.6-1.5-1.3-2.9-2-4.3c-0.3-0.5-0.6-1.1-1.1-1.4   C18.6,2.1,18.3,2,18,2c-0.1,0-0.2,0-0.3,0c0.4,0.2,0.8,0.6,1.1,0.9c0.8,1,1.3,2.2,1.7,3.4c0.5,1.8,1,3.6,1.2,5.5   c0.4,2.3,0.5,4.7-0.2,6.9c-0.3,1.1-0.9,2.2-1.9,2.8c-1.2,0.7-2.7,0.6-4.1,0.5c0.1,0.9,0.7,1.7,1.6,2.1c0.8,0.4,1.7,0.6,2.6,0.7   c1.3,0.2,2.7,0.4,4.1,0.3c0.7-0.1,1.4-0.2,2.1-0.4C26.2,24.3,26.5,23.8,26.6,23.3z" fill="#EF390F">			</path>			<polygon class="colors2" points="21.5,36.3 7,37.2 17.3,95.9 23.3,98.7 28.2,98.2 33.1,97.7 38.4,93.6 35.9,34.2   " fill="#FF5A27">			</polygon>			<polygon class="colors1" points="33.1,97.7 29.4,34.9 36,34.1 38.4,93.6   " fill="#EF390F">			</polygon>			<polygon class="colors3" points="23.3,98.7 14.3,38.3 12.8,39.1 20.3,97.3   " fill="#FF7336">			</polygon>			<path class="colors4" d="M36,34.1l-9.4-14.3l0,0c0,0.3,0,0.7-0.1,0.9c-0.2,0.7-1.1,1.1-1.8,1.1c-0.4,0-0.7-0.1-1-0.3   c-0.1-0.1-0.4-0.3-0.5-0.3c-0.2,0-0.4,0.2-0.5,0.3c-0.5,0.3-1.1,0.3-1.5-0.1c-0.6,0.6-1.2,1.2-2.1,1.3c-0.7,0.1-1.4-0.2-1.8-0.8   c-0.7,0.5-1.6,0.7-2.5,0.4c-0.5-0.2-1.2-0.6-1.4-1.1L7.1,37.2l0.1,0c0,0.1,0,0.2,0,0.3c0.3,1.5,1.5,2.8,2.9,3.2   c1.5,0.5,3.3,0.1,4.5-1c0.2,0.8,0.9,1.2,1.7,1.5c2.3,1,4.9,1.4,7.3,0.9c2.5-0.5,4.7-2,5.9-4.2c0.4,0.7,1.3,0.8,2.1,0.7   c1-0.1,2.1-0.4,2.9-1C35.3,37.1,35.9,35.2,36,34.1C35.9,34.2,35.9,34.2,36,34.1L36,34.1z" fill="#FFCE80">			</path>			<path class="colors5" d="M35.9,34.2C35.9,34.2,35.9,34.2,35.9,34.2L35.9,34.2l-9.4-14.4l0,0c0,0.3,0,0.7-0.1,0.9   c-0.2,0.7-1.1,1.1-1.8,1.1c-0.4,0-0.7-0.1-1-0.3c-0.1-0.1-0.4-0.3-0.5-0.3c0,0,0,0,0,0c0.4,0.7,0.9,1.3,1.1,1.7   c1.4,2.6,2.5,5.3,3.2,8.1c0.4,1.7,0.8,3.5,0.3,5.1c-0.6,2.1-2.3,3.8-4.3,4.8c-1.2,0.6-2.4,0.9-3.7,1.2c1.2,0.2,2.5,0.2,3.7-0.1   c2.5-0.5,4.7-2,5.9-4.2c0.4,0.7,1.3,0.8,2.1,0.7c1-0.1,2.1-0.4,2.9-1C35.3,37.1,35.9,35.2,35.9,34.2z" fill="#FFBE71">			</path>			<path class="colors6" d="M13.9,33c-0.2,1-0.5,2.1-1,3c-1,1.5-3,2.1-4.7,1.6c0.8,1.2,2.1,2.4,3.5,2.3c0.8-0.1,1.5-0.6,1.9-1.3   c0.5-0.6,0.7-1.4,0.9-2.2c0.6-2.3,0.7-4.7,0.9-7.1c-0.2-1.6,0.2-3.4,0.3-5.1C15.5,27.1,14.5,30.1,13.9,33z" fill="#FFFFFF">			</path>			<path class="colors6" d="M22,40.4c2.1-0.3,4-2,4.3-4.3c0.1-0.8,0-1.7-0.2-2.5c-0.5-2.8-1.3-5.6-2.3-8.3c0.3,1.6,0.8,3.2,1.2,4.8   c0.3,1.6,0.6,3.3,0.3,4.9c-0.3,1.6-1,3.1-2.3,3.9c-1.3,0.8-3,0.7-4.1-0.5c0.3,0.6,0.5,1.2,1.1,1.6C20.5,40.5,21.4,40.5,22,40.4z" fill="#FFFFFF">			</path>			<path class="colors7" d="M17.1,3.8c-0.7,1.8-0.9,3.6-1.2,5.5c-0.4,2.7-0.7,5.3-1,8c-0.1,0.6-0.1,1.3-0.1,1.9c0,0.2,0,0.3,0.2,0.4   c0.2,0.1,0.4-0.2,0.5-0.5c0.9-4.1,1.3-8.3,2.4-12.3C18.1,6,18.4,5,18.3,4.1C18.2,3.1,17.5,2.8,17.1,3.8z" fill="#FFFFFF">			</path>		</g>		<g fill="#FFFFFF">			<path class="colors8" d="M77.4,16.7c-0.3-2.9-0.6-5.8-1.1-8.6c-0.2-1.6-0.5-3.1-0.8-4.7c-0.1-0.6-0.3-1.2-0.6-1.7   c-0.2-0.2-0.5-0.4-0.8-0.4c-0.3-0.1-0.7,0-0.9,0.2c-0.5,0.3-0.8,0.9-1.1,1.4c-0.8,1.4-1.5,2.8-2.2,4.2c-1.3,2.6-2.5,5.2-3.6,7.9   c-0.9,2.2-2.5,4.7-1.8,7.1c0.3,1.1,0.9,2,1.5,2.9c0.4,0.6,0.9,1.2,1.5,1.6c0.6,0.4,1.4,0.6,2.1,0.3c0.3-0.1,0.6-0.3,0.8-0.6   c0.1,0.3,0.3,0.6,0.6,0.8c0.6,0.5,1.4,0.5,2.1,0.4c0.7-0.2,1.3-0.6,1.9-1c0.9-0.7,1.7-1.4,2.3-2.3C78.4,21.9,77.6,19.1,77.4,16.7z   " fill="#6DBF3D">			</path>			<path class="colors0" d="M77,24c1.4-2.1,0.6-5,0.4-7.3c-0.3-2.9-0.6-5.8-1.1-8.6c-0.2-1.6-0.5-3.1-0.8-4.7c-0.1-0.6-0.3-1.2-0.6-1.7   c-0.2-0.2-0.5-0.4-0.8-0.4c-0.1,0-0.2,0-0.3,0c0.4,0.3,0.6,0.8,0.9,1.2c0.6,1.2,0.7,2.5,0.7,3.7c0.1,1.9,0,3.7-0.2,5.6   c-0.3,2.3-0.7,4.7-2,6.7c-0.6,1-1.5,1.9-2.6,2.2c-1.3,0.4-2.8-0.1-4.1-0.6c-0.2,0.9,0.3,1.8,1,2.5c0.7,0.6,1.5,1,2.4,1.4   c1.2,0.5,2.5,1.1,3.8,1.3c0.7,0.1,1.4,0.2,2.2,0.1C76.3,25,76.7,24.5,77,24z" fill="#5C9B34">			</path>			<polygon class="colors8" points="68.7,35.3 54.5,32.5 48.8,92.9 53.8,97.2 58.7,98 63.6,98.7 69.7,96.2 83.2,37   " fill="#6DBF3D">			</polygon>			<polygon class="colors0" points="63.6,98.7 76.7,36 83.2,36.9 69.7,96.2   " fill="#5C9B34">			</polygon>			<polygon class="colors9" points="53.8,97.2 61.2,35.4 59.6,35.8 51.4,95.1   " fill="#7DD146">			</polygon>			<path class="colors4" d="M83.2,36.9l-5.4-16.3l0,0c-0.1,0.3-0.2,0.6-0.3,0.9c-0.4,0.6-1.3,0.8-2,0.6c-0.4-0.1-0.6-0.3-0.9-0.5   c-0.1-0.1-0.3-0.4-0.5-0.4c-0.2,0-0.4,0.1-0.6,0.2c-0.5,0.2-1.1,0-1.5-0.5c-0.7,0.4-1.5,0.8-2.3,0.7c-0.7-0.1-1.3-0.6-1.6-1.2   c-0.8,0.3-1.7,0.3-2.5-0.2c-0.5-0.3-1-0.9-1.1-1.5L54.5,32.5l0.1,0c0,0.1-0.1,0.2-0.1,0.3c-0.1,1.5,0.8,3.1,2,3.9   c1.3,0.9,3.2,1,4.6,0.2c0,0.8,0.6,1.4,1.2,1.9c2,1.6,4.4,2.6,6.9,2.8c2.5,0.1,5.1-0.7,6.8-2.6c0.2,0.8,1,1.1,1.8,1.2   c1,0.2,2.1,0.1,3-0.2C81.8,39.6,82.9,37.9,83.2,36.9C83.2,37,83.2,37,83.2,36.9L83.2,36.9z" fill="#FFCE80">			</path>			<path class="colors5" d="M83.2,37C83.2,37,83.2,37,83.2,37L83.2,37l-5.4-16.3l0,0c-0.1,0.3-0.2,0.6-0.3,0.9c-0.4,0.6-1.3,0.8-2,0.6   c-0.4-0.1-0.6-0.3-0.9-0.5c-0.1-0.1-0.3-0.4-0.5-0.4c0,0,0,0,0,0c0.2,0.8,0.5,1.5,0.6,1.9c0.7,2.8,1,5.8,1,8.7   c0,1.7-0.1,3.5-1,5.1c-1.1,1.9-3.2,3.1-5.4,3.5c-1.3,0.3-2.6,0.3-3.8,0.3c1.2,0.5,2.4,0.8,3.6,0.9c2.5,0.1,5.1-0.7,6.8-2.6   c0.2,0.8,1,1.1,1.8,1.2c1,0.2,2.1,0.1,3-0.2C81.8,39.6,82.9,37.9,83.2,37z" fill="#FFBE71">			</path>			<path class="colors6" d="M62.2,30.2c-0.5,0.9-1,1.9-1.8,2.6c-1.3,1.2-3.4,1.3-4.9,0.3c0.5,1.4,1.4,2.9,2.8,3.1   c0.8,0.1,1.6-0.2,2.2-0.7c0.6-0.5,1.1-1.2,1.4-1.9c1.2-2.1,1.9-4.4,2.7-6.7c0.2-1.6,1.1-3.3,1.6-4.8   C65.2,24.9,63.5,27.5,62.2,30.2z" fill="#FFFFFF">			</path>			<path class="colors6" d="M68.2,39.4c2.1,0.2,4.4-0.9,5.2-3.1c0.3-0.8,0.4-1.6,0.5-2.5c0.2-2.9,0.2-5.7-0.1-8.6c-0.1,1.7,0,3.3-0.1,5   c-0.1,1.7-0.3,3.3-1,4.8c-0.7,1.5-1.8,2.8-3.2,3.2c-1.4,0.4-3.1-0.1-3.9-1.5c0.2,0.7,0.2,1.3,0.6,1.8   C66.7,39.1,67.5,39.3,68.2,39.4z" fill="#FFFFFF">			</path>			<path class="colors7" d="M72.8,2.8c-1.1,1.5-1.8,3.3-2.6,5c-1,2.5-2,5-3,7.5c-0.2,0.6-0.5,1.2-0.6,1.8c0,0.2-0.1,0.3,0.1,0.4   c0.2,0.2,0.5-0.1,0.6-0.3c1.9-3.7,3.4-7.6,5.5-11.3c0.5-0.8,1-1.7,1.1-2.6C74,2.4,73.4,1.9,72.8,2.8z" fill="#FFFFFF">			</path>		</g>		<path class="colors10" d="M22,62.3c1.2,0.7,2.8,0.8,4,0.1c1.2-0.6,2.1-2,2.2-3.3c-0.1,2.3-0.3,4.6-1,6.7c-0.3,0.8-0.6,1.6-1.3,2.2  c-0.6,0.6-1.6,0.8-2.4,0.4c-0.4-0.2-0.7-0.6-1-1c-1.6-2.4-2.9-5.2-3.5-8.1C19.5,59.8,20.6,61.5,22,62.3z" fill="#413E49">		</path>		<path class="colors10" d="M58.7,53.5c-0.2,1.2-0.3,2.8-0.3,4c0,1.8,0.1,3.7,1,5.3c0.9,1.6,2.5,2.9,4.4,2.8c1,0,1.9-0.5,2.7-1  c2.9-1.9,4.6-5.2,5.2-8.6L58.7,53.5z" fill="#413E49">		</path>		<path class="colors10" d="M57,45.7c0.5-0.9,1.2-1.7,2.2-2c0.4-0.1,0.9-0.2,1.3,0c0.5,0.2,0.8,0.7,1,1.1c0.7,1.5,0.8,3.1,0.9,4.7  c-0.3-1.2-0.6-2.5-1.5-3.4c-0.5-0.5-1.2-0.7-1.9-0.8c-0.3,0-0.6,0-0.8,0.2c-0.2,0.1-0.3,0.3-0.5,0.5c-0.8,1.1-1.3,2.4-1.7,3.8  C56,48.6,56.4,46.9,57,45.7z" fill="#413E49">		</path>		<path class="colors10" d="M76.7,49.2c0-1-0.3-2.1-1-2.8c-0.3-0.3-0.7-0.6-1.2-0.6c-0.5,0-1,0.2-1.4,0.5c-1.3,0.9-2.2,2.4-3,3.7  c0.8-0.9,1.7-1.9,2.9-2.2c0.7-0.2,1.4-0.1,2,0.2c0.3,0.1,0.5,0.3,0.6,0.5c0.1,0.2,0.1,0.4,0.2,0.7c0.1,1.4,0,2.8-0.4,4.1  C76.3,52.2,76.7,50.6,76.7,49.2z" fill="#413E49">		</path>		<path class="colors11" d="M65.6,61c-0.6-0.2-1.4-0.2-2,0.2c-0.4-0.5-1.1-0.7-1.8-0.7c-0.7,0.1-1.3,0.4-1.7,0.8  c-0.4,0.4-0.7,0.8-0.9,1.3c0,0.1,0.1,0.1,0.1,0.2c0.9,1.6,2.5,2.9,4.4,2.8c1,0,1.9-0.5,2.7-1c0.4-0.2,0.7-0.5,1-0.8  c0-0.3,0-0.6-0.1-0.8C67.1,62.2,66.5,61.3,65.6,61z" fill="#FF624D">		</path>		<path class="colors10" d="M57.9,39.4c-0.4,0.4-0.8,0.8-0.9,1.4c0.2,0.1,0.4,0,0.6-0.1c1-0.5,2-1.1,2.9-1.8c0.2-0.1,0.3-0.3,0.4-0.5  C61.1,37.3,58.2,39.1,57.9,39.4z" fill="#413E49">		</path>		<path class="colors10" d="M78.3,42.6c0.2,0.5,0.3,1.1,0.2,1.6c-0.2,0-0.4-0.2-0.5-0.3C77.3,43,76.7,42,76.2,41  c-0.1-0.2-0.2-0.4-0.1-0.6C76.4,39.3,78.2,42.2,78.3,42.6z" fill="#413E49">		</path>		<path class="colors10" d="M10.7,43.3c-0.2,0.3-0.4,0.6-0.3,0.9c0,0.1,0.1,0.2,0.2,0.3c0.1,0.1,0.3,0.1,0.4,0c0.1-0.1,0.2-0.2,0.3-0.3  c0.8-0.9,1.9-1.5,3.1-1.7c0.2,0,0.3,0,0.5-0.1c0.2-0.1,0.3-0.4,0.2-0.6c-0.3-0.6-1.8-0.2-2.3,0C12,42,11.2,42.6,10.7,43.3z" fill="#413E49">		</path>		<path class="colors10" d="M33.3,40.7c0.3,0.2,0.5,0.5,0.5,0.8c0,0.1,0,0.2-0.1,0.3c-0.1,0.1-0.3,0.1-0.4,0.1s-0.3-0.1-0.4-0.2  c-1-0.7-2.2-1.1-3.4-1c-0.2,0-0.3,0-0.5,0c-0.2-0.1-0.4-0.3-0.3-0.6c0.1-0.7,1.7-0.5,2.2-0.5C31.8,39.7,32.6,40.1,33.3,40.7z" fill="#413E49">		</path>		<path class="colors1" d="M42.7,59.5c0.1,0,0.2,0.1,0.3,0.1c0.1,0,0.2,0,0.2,0c0.4,0,0.8-0.1,1.2-0.1c0.1,0,0.3,0,0.4,0.1  c0.1,0.1,0.1,0.3,0,0.4c-0.1,0.1-0.3,0.2-0.4,0.2c0.3,0.1,0.6,0.1,0.9,0.2c0.3,0.1,0.6,0.2,0.8,0.4s0.4,0.5,0.4,0.8  c0,0.3-0.2,0.6-0.5,0.6c0,0.2,0,0.3-0.2,0.5c-0.1,0.1-0.3,0.2-0.4,0.3c-0.3,0.1-0.6,0.3-1,0.3c-0.5,0-0.9-0.3-1.3-0.7  c-0.5-0.5-1-1.1-1.5-1.7c-0.3-0.3-0.5-0.7-0.7-1.1c-0.2-0.4-0.3-0.8-0.3-1.3c0-0.2,0.1-0.4,0.3-0.4c0.1,0,0.2,0,0.2,0.1  c0.3,0.2,0.4,0.5,0.6,0.7C41.9,59.2,42.4,59.4,42.7,59.5z" fill="#EF390F">		</path>		<path class="colors0" d="M42.3,61.1c0.2-0.1,0.4-0.1,0.5,0.1c0.1,0.1,0,0.3-0.1,0.4c0.2-0.1,0.4-0.1,0.5,0c0.1,0.1,0.2,0.3,0.1,0.5  c0.2-0.1,0.4-0.1,0.5,0.1c0.1,0.2,0,0.4-0.1,0.5c-0.1,0.2-0.3,0.4-0.5,0.6c-0.1,0.1-0.2,0.1-0.3,0.1c-0.1-0.1-0.1-0.2-0.2-0.4  c0-0.3-0.2-0.5-0.4-0.7c-0.1-0.1-0.2-0.2-0.3-0.3c-0.1-0.1-0.2-0.2-0.3-0.3C41.7,61.4,42.1,61.2,42.3,61.1z" fill="#5C9B34">		</path>		<g fill="#FFFFFF">			<path class="colors12" d="M19.2,47.4c0.9,1.2,1.2,2.8,1.3,4.3c0.1,1.6,0.1,3.4-0.6,4.8s-2.1,2.6-3.7,2.4c-0.8-0.1-1.5-0.6-2.1-1.1   s-1-1.3-1.4-2.1c-0.7-1.5-1.2-3.2-1.4-4.9c-0.1-0.7-0.1-1.4,0.1-2.1c0.4-1.6,1.9-2.7,3.4-2.8c0.7,0,1.5-0.2,2.2,0   C17.9,46.2,18.6,46.7,19.2,47.4z" fill="#FFF3E9">			</path>			<path class="colors13" d="M11.3,50.9c-0.1-0.7-0.1-1.4,0.1-2.1c0.1-0.6,0.4-1.1,0.8-1.6c-0.1,0.1-0.1,0.3-0.1,0.4   c-0.2,0.7-0.1,1.4-0.1,2.1c0.2,1.7,0.6,3.3,1.4,4.9c0.4,0.8,0.8,1.5,1.4,2.1c0.6,0.6,1.3,1,2.1,1.1c1.2,0.2,2.3-0.4,3-1.4   c0,0,0,0.1,0,0.1c-0.7,1.5-2.1,2.6-3.7,2.4c-0.8-0.1-1.5-0.6-2.1-1.1c-0.6-0.6-1-1.3-1.4-2.1C12,54.3,11.5,52.6,11.3,50.9z" fill="#FFE7C0">			</path>			<path class="colors13" d="M20.3,50.4c-2.6-1.4-5.1-0.8-6.9,0.7c-0.7,0.5-1.1,1.5-1.4,2.1c-0.2-0.5-0.5-2.3-0.4-2.8   c0.2-0.4,0.5-0.8,0.9-1c0.7-0.5,1.6-0.7,2.5-0.8c0.9-0.1,1.8-0.2,2.6-0.1c0.4,0,0.9,0.1,1.3,0.2c0.3,0.1,0.9,0.2,1.1,0.5   c0.1,0.1,0.1,0.3,0.1,0.4C20.3,49.9,20.3,50.2,20.3,50.4z" fill="#FFE7C0">			</path>			<path class="colors10" d="M20,50.7c0.3,0.6,0.3,1.3,0.3,1.9c0,0.9-0.2,1.8-0.7,2.5c-0.5,0.7-1.4,1.1-2.2,0.7c-0.2-0.1-0.4-0.3-0.6-0.5   c-0.9-1-1.3-2.4-1-3.8c0.1-0.6,0.4-1.2,0.9-1.6C17.8,49,19.5,49.4,20,50.7z" fill="#413E49">			</path>			<path class="colors14" d="M19.6,51.9c0,0.2,0,0.4-0.1,0.5c-0.1,0.1-0.2,0.1-0.3,0.1c-0.3,0-0.6-0.2-0.9-0.5c-0.3-0.3-0.5-0.7-0.6-1.2   c-0.1-0.7,0.5-1.2,1.1-0.8C19.3,50.3,19.5,51.3,19.6,51.9z" fill="#FFFFFF">			</path>			<path class="colors15" d="M19.6,47.7c-0.6-0.9-1.5-1.6-2.5-2c-0.9-0.3-1.8-0.4-2.7-0.3c-0.9,0.1-1.7,0.3-2.4,0.9   c-0.6,0.5-1,1.4-1.1,2.2c-0.1,0.8,0,1.7,0.1,2.5c0.1,0.6,0.1,0.7,0.2,1.3c0.7-0.8,1.1-1.9,3.3-3.1c2.1-1.1,5.2-1.3,6.1,1.7   c-0.1-0.2-0.2-1.2-0.3-1.5C20.2,48.9,20,48.3,19.6,47.7z" fill="#FF8243">			</path>			<g fill="#FFFFFF">				<path class="colors1" d="M11,48.5c0.1-0.8,0.5-1.6,1.1-2.2c0.3-0.3,0.7-0.5,1-0.6c-0.6,0.5-0.9,1.3-1,2.1c-0.1,0.8,0,1.7,0.1,2.5    c0.1,0.6,0,0.2,0.1,0.7c-0.4,0.3-0.7,1-1,1.3c-0.1-0.6-0.1-0.7-0.2-1.3C10.9,50.2,10.8,49.3,11,48.5z" fill="#EF390F">				</path>			</g>			<path class="colors16" d="M18.2,46.8c0.7,0.5,1.3,1.1,1.5,1.8c0,0.1,0,0.2-0.1,0.2c-0.1,0-0.1,0-0.1-0.1c-1.1-1-2.2-2.1-3.7-2.6   c-0.1,0-0.3-0.1-0.3-0.2c0.4-0.2,1,0.1,1.4,0.2C17.3,46.3,17.8,46.5,18.2,46.8z" fill="#FFFFFF">			</path>		</g>		<g fill="#FFFFFF">			<path class="colors12" d="M34.8,46.8c0.5,1.4,0.4,3,0.2,4.5c-0.3,1.6-0.8,3.3-1.8,4.5c-1,1.2-2.7,2-4.2,1.4c-0.7-0.3-1.3-0.9-1.7-1.7   c-0.4-0.7-0.6-1.5-0.8-2.4c-0.3-1.7-0.3-3.4-0.1-5c0.1-0.7,0.3-1.4,0.6-2c0.8-1.5,2.5-2.2,4-1.8c0.7,0.2,1.5,0.2,2.1,0.5   C33.9,45.3,34.5,46,34.8,46.8z" fill="#FFF3E9">			</path>			<path class="colors13" d="M26.3,48.1c0.1-0.7,0.3-1.4,0.6-2c0.3-0.6,0.7-1,1.2-1.3c-0.1,0.1-0.2,0.3-0.2,0.4c-0.3,0.6-0.5,1.3-0.6,2   c-0.3,1.7-0.2,3.4,0.1,5c0.2,0.8,0.4,1.7,0.8,2.4c0.4,0.7,1,1.3,1.7,1.7c1.1,0.5,2.3,0.2,3.3-0.5c0,0,0,0.1-0.1,0.1   c-1,1.2-2.7,2-4.2,1.4c-0.7-0.3-1.3-0.9-1.7-1.7c-0.4-0.7-0.6-1.5-0.8-2.4C26.1,51.5,26.1,49.8,26.3,48.1z" fill="#FFE7C0">			</path>			<path class="colors13" d="M35.1,50c-2.2-2-4.7-2.1-6.8-1.1c-0.8,0.4-1.4,1.2-1.9,1.7c0-0.5,0.1-2.3,0.4-2.8c0.3-0.4,0.7-0.6,1.2-0.7   c0.8-0.2,1.7-0.2,2.6-0.2c0.9,0.1,1.7,0.3,2.6,0.6c0.4,0.2,0.8,0.3,1.2,0.6c0.3,0.2,0.8,0.4,1,0.8c0.1,0.1,0,0.3,0,0.4   C35.2,49.5,35.2,49.7,35.1,50z" fill="#FFE7C0">			</path>			<path class="colors10" d="M34.6,49.9c0.1,0.6,0.1,1.3-0.1,2c-0.2,0.9-0.6,1.7-1.2,2.3c-0.6,0.6-1.6,0.7-2.3,0.2   c-0.2-0.2-0.4-0.4-0.5-0.6c-0.7-1.1-0.7-2.7-0.1-3.9c0.3-0.6,0.7-1.1,1.3-1.4C32.8,47.9,34.3,48.6,34.6,49.9z" fill="#413E49">			</path>			<path class="colors14" d="M33.9,51c0,0.2-0.1,0.4-0.2,0.5c-0.1,0-0.2,0-0.3,0c-0.3-0.1-0.6-0.4-0.7-0.7c-0.2-0.4-0.3-0.8-0.3-1.3   c0-0.7,0.7-1,1.2-0.5C34,49.4,34,50.5,33.9,51z" fill="#FFFFFF">			</path>			<path class="colors15" d="M35.2,47.2c-0.4-1-1-1.9-1.9-2.6c-0.7-0.5-1.6-0.9-2.5-1c-0.8-0.1-1.7-0.1-2.5,0.2c-0.8,0.4-1.3,1.1-1.7,1.8   c-0.3,0.8-0.5,1.6-0.6,2.4c-0.1,0.6-0.1,0.7-0.1,1.3c0.9-0.5,1.6-1.6,4-2.1c2.3-0.5,5.4,0.1,5.5,3.3c0-0.3,0.2-1.2,0.1-1.5   C35.4,48.5,35.4,47.8,35.2,47.2z" fill="#FF8243">			</path>			<g fill="#FFFFFF">				<path class="colors1" d="M26.6,45.7c0.3-0.8,0.9-1.4,1.7-1.8c0.4-0.2,0.8-0.3,1.2-0.3c-0.7,0.4-1.2,1-1.5,1.7    c-0.3,0.8-0.5,1.6-0.6,2.4c-0.1,0.6,0,0.2-0.1,0.7c-0.5,0.2-1,0.8-1.4,1c0-0.6,0-0.7,0.1-1.3C26.1,47.3,26.3,46.5,26.6,45.7z" fill="#EF390F">				</path>			</g>			<path class="colors16" d="M34,45.9c0.6,0.6,0.9,1.4,1,2.2c0,0.1,0,0.2-0.1,0.2c-0.1,0-0.1-0.1-0.1-0.1c-0.8-1.3-1.6-2.6-2.9-3.5   c-0.1-0.1-0.3-0.2-0.3-0.3c0.5-0.1,1,0.3,1.3,0.6C33.3,45.2,33.7,45.5,34,45.9z" fill="#FFFFFF">			</path>		</g>	</g></svg>